<mxfile host="app.diagrams.net" modified="2022-06-06T11:05:59.516Z" agent="5.0 (Windows NT 10.0; Win64; x64) AppleWebKit/537.36 (KHTML, like Gecko) Chrome/101.0.4951.54 Safari/537.36 Edg/101.0.1210.39" etag="ojSbS5sJL32QIX4YFMHb" version="19.0.0" type="github">
  <diagram id="wVDQifH4NGM5d7AYTFJU" name="Page-1">
    <mxGraphModel dx="1344" dy="834" grid="1" gridSize="10" guides="1" tooltips="1" connect="1" arrows="1" fold="1" page="1" pageScale="1" pageWidth="827" pageHeight="1169" math="0" shadow="0">
      <root>
        <mxCell id="0" />
        <mxCell id="1" parent="0" />
        <mxCell id="PO_PAYHSMLBgCaqmbNkz-1" value="" style="rounded=0;whiteSpace=wrap;html=1;" vertex="1" parent="1">
          <mxGeometry x="190" y="280" width="120" height="60" as="geometry" />
        </mxCell>
      </root>
    </mxGraphModel>
  </diagram>
</mxfile>
